<mxfile host="app.diagrams.net" modified="2024-04-04T17:21:17.495Z" agent="Mozilla/5.0 (Windows NT 10.0; Win64; x64) AppleWebKit/537.36 (KHTML, like Gecko) Chrome/123.0.0.0 Safari/537.36" version="24.2.2" etag="9_9B-2o-BglkC8otAX4c" type="github">
  <diagram name="PÃ¡gina-1" id="IAKJVxWq2CspnANiIu_g">
    <mxGraphModel>
      <root>
        <mxCell id="0" />
        <mxCell id="1" parent="0" />
      </root>
    </mxGraphModel>
  </diagram>
</mxfile>
